# generated from PmQm by Jehee Lee
:FULLY-SPECIFIED
:DEGREES
688
root 18.6469 38.11 -58.9714 -178.722 24.4924 -173.234
RightUpLeg 6.92944 3.02114 10.5018
RightLeg 16.8986 5.47558 1.66369
RightFoot -21.9721 -0.46851 -3.44004
RightToes 2.92371e-005 7.89716e-005 -0.000493274
Spine 0.120873 2.05672 2.97643
Spine1 0.230855 4.05303 7.14012
HEad 28.4368 16.9976 -12.8056
LeftShoulder1 -3.88251e-019 -0 -3.92111e-022
LeftArm -37.9479 9.54283 -83.6719
LeftForeArm 28.4191 2.24525 2.16705
LeftHand -0.631785 -4.3947 7.77406
RightShoulder 7.45443e-017 -2.42657e-020 1.96277e-018
RightArm -23.3602 -7.48014 72.6467
RightForeArm 34.9761 4.10641 8.04799
RightHand -1.2741 10.669 -9.57284
LeftUpLeg -21.5412 1.03082 2.63761
LeftLeg -2.64234 26.0009 0.953211
LeftFoot 6.04628 0.188123 -1.47726
LeftToes 3.91355e-005 3.11907e-005 -4.10385e-006
689
root 19.0798 38.1157 -60.501 -179.132 24.2416 -174.922
RightUpLeg 9.31011 2.81234 8.58008
RightLeg 16.8563 5.51916 1.65716
RightFoot -22.0122 -0.448451 -3.21761
RightToes 2.92371e-005 7.89716e-005 -0.000493274
Spine 0.003575770001 2.13794 2.1822
Spine1 -0.0425432 4.17922 5.60254
HEad 27.5795 19.0413 -11.9339
LeftShoulder1 -3.88251e-019 -0 -3.92111e-022
LeftArm -38.9006 11.9143 -83.4521
LeftForeArm 29.3129 1.96149 3.76287
LeftHand -0.543448 -3.58289 7.28652
RightShoulder 7.45443e-017 -2.42657e-020 1.96277e-018
RightArm -24.7278 -8.91236 72.9817
RightForeArm 34.8637 2.41637 6.2836
RightHand -1.29027 10.6311 -9.7094
LeftUpLeg -20.6047 0.286027 1.03888
LeftLeg -1.02783 26.3314 0.757769
LeftFoot 12.161 -1.07932 4.74002
LeftToes 3.91355e-005 3.11907e-005 -4.10385e-006
690
root 19.4438 38.2576 -62.1715 179.749 24.1917 -177.976
RightUpLeg 10.9922 1.93816 4.5692
RightLeg 18.7031 6.95886 2.414
RightFoot -20.677 -0.266626 -1.55216
RightToes 2.92371e-005 7.89716e-005 -0.000493274
Spine -0.222277 2.26152 0.772262
Spine1 -0.590332 4.36713 3.15784
HEad 27.8336 21.2273 -10.4568
LeftShoulder1 -3.88251e-019 -0 -3.92111e-022
LeftArm -39.9945 15.9258 -82.8746
LeftForeArm 30.8038 1.92966 3.96524
LeftHand -0.483936 -3.11281 6.84705
RightShoulder 7.45443e-017 -2.42657e-020 1.96277e-018
RightArm -26.4323 -10.4696 73.8373
RightForeArm 35.3291 0.0331245 3.74995
RightHand -1.33903 10.1901 -10.3274
LeftUpLeg -19.1575 -1.45704 -1.97523
LeftLeg 0.709619 26.986 0.793037
LeftFoot 14.65 -2.54443 10.6007
LeftToes 3.91355e-005 3.11907e-005 -4.10385e-006
691
root 19.7244 38.3953 -63.8193 178.446 23.8036 178.674
RightUpLeg 10.6148 -1.41642 -1.10046
RightLeg 24.1851 9.77095 4.56819
RightFoot -17.266 0.005087460002 2.51934
RightToes 2.92371e-005 7.89716e-005 -0.000493274
Spine -0.520887 2.42047 -0.744738
Spine1 -1.29965 4.54595 0.603522
HEad 29.1839 23.0021 -8.61929
LeftShoulder1 -3.88251e-019 -0 -3.92111e-022
LeftArm -40.8068 20.0437 -81.9965
LeftForeArm 31.2342 1.9308 2.97579
LeftHand -0.480994 -3.17754 6.75912
RightShoulder 7.45443e-017 -2.42657e-020 1.96277e-018
RightArm -28.0963 -12.4604 74.9942
RightForeArm 35.873 -1.78622 1.1338
RightHand -1.21882 9.14575 -10.067
LeftUpLeg -17.7924 -3.43621 -5.45453
LeftLeg 3.53905 28.0495 1.52673
LeftFoot 10.8565 -2.53996 12.5208
LeftToes 3.91355e-005 3.11907e-005 -4.10385e-006
692
root 19.9546 38.455 -65.2452 177.619 22.7764 176.429
RightUpLeg 7.89383 -4.92149 -5.75017
RightLeg 33.1437 11.4863 7.77044
RightFoot -10.1125 -0.156311 7.25257
RightToes 2.92371e-005 7.89716e-005 -0.000493274
Spine -0.614712 2.72555 -1.9495
Spine1 -1.58384 4.99685 -1.30653
HEad 30.089 23.669 -7.12354
LeftShoulder1 -3.88251e-019 -0 -3.92111e-022
LeftArm -41.0431 22.4049 -81.4173
LeftForeArm 28.4928 2.02181 2.28329
LeftHand -0.4988 -3.51828 6.75637
RightShoulder 7.45443e-017 -2.42657e-020 1.96277e-018
RightArm -29.0895 -15.1904 75.6422
RightForeArm 34.5985 -1.60327 0.209609
RightHand -0.90649 8.01767 -8.1826
LeftUpLeg -16.6968 -4.49044 -7.98488
LeftLeg 6.6221 28.1865 2.04307
LeftFoot 6.62988 -1.79002 11.0107
LeftToes 3.91355e-005 3.11907e-005 -4.10385e-006
693
root 20.1369 38.4297 -66.4386 177.235 21.5187 175.932
RightUpLeg 3.36277 -6.48567 -7.67478
RightLeg 43.8956 10.5168 10.4152
RightFoot -0.815104 -0.896524 9.67114
RightToes 2.92371e-005 7.89716e-005 -0.000493274
Spine -0.379565 3.17029 -2.3969
Spine1 -1.15952 5.75337 -1.81089
HEad 29.2812 23.9984 -7.12494
LeftShoulder1 -3.88251e-019 -0 -3.92111e-022
LeftArm -41.1358 22.7592 -81.6517
LeftForeArm 24.0437 2.13161 2.14381
LeftHand -0.446597 -3.8094 5.89996
RightShoulder 7.45443e-017 -2.42657e-020 1.96277e-018
RightArm -29.0038 -17.8643 74.8981
RightForeArm 31.5795 -0.004360690001 1.51984
RightHand -0.757205 7.75273 -7.04869
LeftUpLeg -16.0021 -4.67369 -9.26036
LeftLeg 10.1011 27.281 3.12231
LeftFoot 3.90986 -1.34336 9.83612
LeftToes 3.91355e-005 3.11907e-005 -4.10385e-006
694
root 20.3341 38.4468 -67.4764 176.945 19.4665 176.15
RightUpLeg -1.80215 -7.52342 -8.19033
RightLeg 52.9565 6.54731 8.84278
RightFoot 4.71379 -1.41721 10.2629
RightToes 2.92371e-005 7.89716e-005 -0.000493274
Spine -0.0164014 3.34345 -2.34661
Spine1 -0.433817 6.01032 -1.311
HEad 27.5438 24.719 -8.62836
LeftShoulder1 -3.88251e-019 -0 -3.92111e-022
LeftArm -41.1563 21.6336 -82.2659
LeftForeArm 21.786 2.18571 1.87155
LeftHand -0.388353 -3.96446 5.09093
RightShoulder 7.45443e-017 -2.42657e-020 1.96277e-018
RightArm -28.2286 -19.2182 72.9578
RightForeArm 30.5602 1.09799 3.2348
RightHand -0.957786 8.62033 -8.28086
LeftUpLeg -14.7098 -4.64575 -10.2989
LeftLeg 12.277 25.3153 4.12579
LeftFoot 1.22794 -1.12854 10.1606
LeftToes 3.91355e-005 3.11907e-005 -4.10385e-006
695
root 20.6382 38.5188 -68.4057 177.073 15.5085 176.53
RightUpLeg -6.72079 -9.58774 -8.13079
RightLeg 58.2134 1.76658 2.62402
RightFoot 2.91248 -1.20065 9.74047
RightToes 2.92371e-005 7.89716e-005 -0.000493274
Spine 0.121315 2.94007 -2.246
Spine1 -0.135599 5.17424 -0.637522
HEad 26.607 25.4061 -9.9755
LeftShoulder1 -3.88251e-019 -0 -3.92111e-022
LeftArm -40.488 19.4298 -82.4982
LeftForeArm 23.0509 2.17932 1.48945
LeftHand -0.426209 -4.07412 5.50224
RightShoulder 7.45443e-017 -2.42657e-020 1.96277e-018
RightArm -27.7826 -19.2018 71.3607
RightForeArm 33.1784 1.08455 3.59892
RightHand -1.19906 9.63121 -9.61854
LeftUpLeg -13.2443 -4.51894 -11.0362
LeftLeg 13.3304 21.4566 3.97505
LeftFoot -1.08769 -0.904446 10.1254
LeftToes 3.91355e-005 3.11907e-005 -4.10385e-006
696
root 21.0251 38.5911 -69.2406 177.534 9.93597 177.182
RightUpLeg -10.7575 -11.3018 -7.39212
RightLeg 58.8518 -1.18423 -2.56471
RightFoot -2.59819 -0.64357 8.17879
RightToes 2.92371e-005 7.89716e-005 -0.000493274
Spine 0.0735067 2.21582 -2.14188
Spine1 -0.171359 3.80977 -0.153835
HEad 27.0036 25.7449 -10.1493
LeftShoulder1 -3.88251e-019 -0 -3.92111e-022
LeftArm -39.1076 16.6857 -82.2769
LeftForeArm 26.0416 2.07409 1.17571
LeftHand -0.471244 -4.12006 6.02813
RightShoulder 7.45443e-017 -2.42657e-020 1.96277e-018
RightArm -28.077 -18.8553 70.9785
RightForeArm 35.4807 0.841316 2.85589
RightHand -1.12821 9.72008 -9.02151
LeftUpLeg -12.1718 -3.9113 -11.221
LeftLeg 14.3829 15.6468 3.06966
LeftFoot -2.63189 -0.741783 9.92841
LeftToes 3.91355e-005 3.11907e-005 -4.10385e-006
697
root 21.4179 38.6936 -70.0007 177.668 3.85916 177.991
RightUpLeg -13.3473 -11.0124 -6.61353
RightLeg 54.9673 -2.32795 -3.98837
RightFoot -6.45694 -0.365481 7.61412
RightToes 2.92371e-005 7.89716e-005 -0.000493274
Spine 0.144713 1.61912 -1.87116
Spine1 0.0718196 2.775 0.290475
HEad 27.7193 25.7625 -9.79456
LeftShoulder1 -3.88251e-019 -0 -3.92111e-022
LeftArm -37.815 13.7857 -81.9902
LeftForeArm 28.2513 0.22949 0.522613
LeftHand -0.460361 -4.25117 5.82437
RightShoulder 7.45443e-017 -2.42657e-020 1.96277e-018
RightArm -28.5756 -18.8677 71.0971
RightForeArm 33.8027 0.976706 2.28081
RightHand -0.954855 9.11446 -8.00534
LeftUpLeg -10.6843 -3.36581 -10.9806
LeftLeg 14.9929 9.49789 1.93066
LeftFoot -4.02429 -0.653726 10.5821
LeftToes 3.91355e-005 3.11907e-005 -4.10385e-006
698
root 21.8268 38.7756 -70.6855 177.448 -2.57956 178.478
RightUpLeg -14.6462 -9.86512 -6.88286
RightLeg 48.3436 -3.08923 -4.03627
RightFoot -7.67817 -0.332816 8.75063
RightToes 2.92371e-005 7.89716e-005 -0.000493274
Spine 0.360856 1.22475 -1.53468
Spine1 0.611534 2.1544 0.484221
HEad 27.6982 25.1961 -9.42346
LeftShoulder1 -3.88251e-019 -0 -3.92111e-022
LeftArm -36.8887 10.8331 -81.9643
LeftForeArm 28.2519 -3.8211 -0.544893
LeftHand -0.500015 -4.59934 6.09798
RightShoulder 7.45443e-017 -2.42657e-020 1.96277e-018
RightArm -28.8832 -19.2312 71.0615
RightForeArm 30.5881 1.37321 2.39077
RightHand -0.987702 8.94321 -8.35333
LeftUpLeg -9.05657 -2.96702 -10.682
LeftLeg 15.6585 3.1444 0.557894
LeftFoot -5.31909 -0.566752 11.3459
LeftToes 3.91355e-005 3.11907e-005 -4.10385e-006
699
root 22.2744 38.8 -71.3387 177.427 -9.70718 178.523
RightUpLeg -15.2641 -9.5877 -8.30261
RightLeg 40.8018 -3.43824 -3.43935
RightFoot -7.80007 -0.340822 9.28406
RightToes 2.92371e-005 7.89716e-005 -0.000493274
Spine 0.544567 0.889404 -1.31245
Spine1 1.05737 1.63448 0.16673
HEad 27.0444 23.9744 -8.74122
LeftShoulder1 -3.88251e-019 -0 -3.92111e-022
LeftArm -35.8459 7.94461 -82.2816
LeftForeArm 26.7336 -7.76141 -1.41413
LeftHand -0.581855 -5.00787 6.79398
RightShoulder 7.45443e-017 -2.42657e-020 1.96277e-018
RightArm -29.0966 -19.6597 71.123
RightForeArm 29.6509 1.86019 2.85181
RightHand -1.11047 9.39249 -9.07351
LeftUpLeg -8.11738 -2.93938 -10.4785
LeftLeg 17.063 -3.48704 -1.17035
LeftFoot -6.25316 -0.480334 11.6201
LeftToes 3.91355e-005 3.11907e-005 -4.10385e-006
700
root 22.7127 38.8153 -71.9881 177.821 -16.8706 178.346
RightUpLeg -15.5912 -8.7689 -10.3088
RightLeg 33.0236 -1.8792 -1.55989
RightFoot -8.2721 -0.304111 9.2282
RightToes 2.92371e-005 7.89716e-005 -0.000493274
Spine 0.662266 0.723721 -1.09626
Spine1 1.33642 1.41552 -0.265357
HEad 26.343 22.676 -8.18812
LeftShoulder1 -3.88251e-019 -0 -3.92111e-022
LeftArm -34.6861 5.0598 -82.8574
LeftForeArm 25.8146 -11.0916 -2.0234
LeftHand -0.631785 -5.20256 7.22638
RightShoulder 7.45443e-017 -2.42657e-020 1.96277e-018
RightArm -29.0695 -19.9179 71.1911
RightForeArm 30.4098 2.42483 3.45204
RightHand -1.12407 9.61188 -9.05519
LeftUpLeg -7.6827 -4.09446 -10.186
LeftLeg 18.5091 -8.98211 -3.03244
LeftFoot -7.12045 -0.377032 11.358
LeftToes 3.91355e-005 3.11907e-005 -4.10385e-006
701
root 23.1378 38.8381 -72.6156 178.554 -23.3272 178.137
RightUpLeg -15.7718 -4.70374 -12.6539
RightLeg 25.2942 1.57069 0.616262
RightFoot -9.29733 -0.238425 9.78768
RightToes 2.92371e-005 7.89716e-005 -0.000493274
Spine 0.732286 0.843511 -0.642713
Spine1 1.48881 1.71677 -0.341285
HEad 25.7731 22.1849 -8.54163
LeftShoulder1 -3.88251e-019 -0 -3.92111e-022
LeftArm -33.7715 2.19713 -83.4921
LeftForeArm 26.4624 -12.9797 -2.65857
LeftHand -0.703321 -5.17806 8.02457
RightShoulder 7.45443e-017 -2.42657e-020 1.96277e-018
RightArm -28.5656 -19.8259 70.8158
RightForeArm 31.0449 2.90171 4.1578
RightHand -1.0302 9.37651 -8.4578
LeftUpLeg -7.70378 -6.23553 -9.58921
LeftLeg 19.7743 -12.9203 -4.76919
LeftFoot -7.99299 -0.253593 10.2935
LeftToes 3.91355e-005 3.11907e-005 -4.10385e-006
702
root 23.6016 38.8375 -73.2341 179.242 -29.5133 178.419
RightUpLeg -15.8391 1.6257 -14.6785
RightLeg 18.7182 7.567 2.21831
RightFoot -10.8335 -0.122442 10.7818
RightToes 2.92371e-005 7.89716e-005 -0.000493274
Spine 0.745903 1.00443 0.224225
Spine1 1.49555 2.03432 0.12619
HEad 25.312 23.1354 -9.40621
LeftShoulder1 -3.88251e-019 -0 -3.92111e-022
LeftArm -33.0668 -0.0147777 -83.9077
LeftForeArm 27.827 -13.3651 -3.25614
LeftHand -0.75626 -5.16076 8.61729
RightShoulder 7.45443e-017 -2.42657e-020 1.96277e-018
RightArm -27.8275 -19.2497 70.1702
RightForeArm 31.6576 3.03654 4.76373
RightHand -0.950483 9.25322 -7.8985
LeftUpLeg -8.56145 -8.86196 -8.25042
LeftLeg 21.871 -16.1198 -6.68691
LeftFoot -8.96488 -0.131395 8.92855
LeftToes 3.91355e-005 3.11907e-005 -4.10385e-006
